<svg width="17" height="21" viewBox="0 0 17 21" fill="none" xmlns="http://www.w3.org/2000/svg">
<path d="M9 12.0007V9.5007C9 9.36809 8.94732 9.24092 8.85355 9.14715C8.75979 9.05338 8.63261 9.0007 8.5 9.0007C8.36739 9.0007 8.24021 9.05338 8.14645 9.14715C8.05268 9.24092 8 9.36809 8 9.5007V12.0007H5.5C5.36739 12.0007 5.24021 12.0534 5.14645 12.1471C5.05268 12.2409 5 12.3681 5 12.5007C5 12.6333 5.05268 12.7605 5.14645 12.8543C5.24021 12.948 5.36739 13.0007 5.5 13.0007H8V15.5007C8 15.6333 8.05268 15.7605 8.14645 15.8543C8.24021 15.948 8.36739 16.0007 8.5 16.0007C8.63261 16.0007 8.75979 15.948 8.85355 15.8543C8.94732 15.7605 9 15.6333 9 15.5007V13.0007H11.5C11.6326 13.0007 11.7598 12.948 11.8536 12.8543C11.9473 12.7605 12 12.6333 12 12.5007C12 12.3681 11.9473 12.2409 11.8536 12.1471C11.7598 12.0534 11.6326 12.0007 11.5 12.0007H9ZM8.5 21.0007C3.74 21.0007 0 17.7707 0 12.5007C0 8.6357 2.746 4.5157 8.185 0.111702C8.27408 0.0394387 8.3853 0 8.5 0C8.6147 0 8.72592 0.0394387 8.815 0.111702C14.254 4.5157 17 8.6357 17 12.5007C17 17.7707 13.26 21.0007 8.5 21.0007Z" fill="#FF5C4D"/>
</svg>
