<svg width="19" height="22" viewBox="0 0 19 22" fill="none" xmlns="http://www.w3.org/2000/svg">
<path d="M15.8339 6.87499L15.7026 6.73999L18.2226 4.22374C18.6521 3.76067 18.8853 3.1492 18.8734 2.51777C18.8616 1.88634 18.6054 1.28409 18.1589 0.837524C17.7123 0.390956 17.11 0.134824 16.4786 0.122931C15.8472 0.111038 15.2357 0.344308 14.7726 0.773742L12.2564 3.29374L12.1251 3.16624C11.879 2.9176 11.5441 2.77693 11.1943 2.77517C10.8444 2.77341 10.5081 2.91071 10.2595 3.15687C10.0109 3.40302 9.87018 3.73787 9.86842 4.08774C9.86667 4.43761 10.004 4.77385 10.2501 5.02249L10.6476 5.41999L13.5651 8.33749L13.9776 8.74999C14.2238 8.99863 14.5586 9.1393 14.9085 9.14106C15.2584 9.14282 15.5946 9.00552 15.8433 8.75937C16.0919 8.51321 16.2326 8.17837 16.2343 7.8285C16.2361 7.47862 16.0988 7.14238 15.8526 6.89374L15.8339 6.87499Z" fill="#26222C"/>
<path d="M9.87508 5.6825L2.25508 13.2987C1.81426 13.7415 1.56677 14.3408 1.56677 14.9656C1.56677 15.5904 1.81426 16.1897 2.25508 16.6325L2.36758 16.745C2.81033 17.1858 3.40967 17.4333 4.03445 17.4333C4.65923 17.4333 5.25857 17.1858 5.70133 16.745L13.3176 9.125L9.87508 5.6825ZM5.62633 12.5787L5.09758 12.05C5.02696 11.9799 4.98709 11.8846 4.98674 11.7851C4.98639 11.6856 5.02558 11.59 5.0957 11.5194C5.16582 11.4488 5.26111 11.4089 5.36062 11.4085C5.46014 11.4082 5.55571 11.4474 5.62633 11.5175L6.15508 12.05C6.21651 12.1217 6.24861 12.214 6.24497 12.3084C6.24132 12.4028 6.2022 12.4923 6.13541 12.5591C6.06863 12.6259 5.9791 12.665 5.88472 12.6686C5.79034 12.6723 5.69806 12.6402 5.62633 12.5787ZM6.95008 11.2512L6.42133 10.7225C6.35148 10.6522 6.31228 10.5572 6.31228 10.4581C6.31228 10.3591 6.35148 10.264 6.42133 10.1937C6.49159 10.1239 6.58663 10.0847 6.6857 10.0847C6.78477 10.0847 6.87981 10.1239 6.95008 10.1937L7.48258 10.7225C7.55242 10.7928 7.59162 10.8878 7.59162 10.9869C7.59162 11.0859 7.55242 11.181 7.48258 11.2512C7.44771 11.2864 7.40624 11.3143 7.36054 11.3333C7.31484 11.3524 7.26583 11.3622 7.21633 11.3622C7.16682 11.3622 7.11781 11.3524 7.07211 11.3333C7.02641 11.3143 6.98494 11.2864 6.95008 11.2512ZM8.27758 9.9275L7.74883 9.395C7.70957 9.36138 7.67769 9.32001 7.65518 9.27348C7.63267 9.22696 7.62002 9.17629 7.61803 9.12464C7.61603 9.073 7.62473 9.0215 7.64359 8.97337C7.66244 8.92525 7.69104 8.88155 7.72758 8.845C7.76413 8.80846 7.80783 8.77986 7.85595 8.76101C7.90408 8.74215 7.95558 8.73345 8.00722 8.73545C8.05887 8.73744 8.10954 8.75009 8.15606 8.7726C8.20259 8.79511 8.24396 8.82699 8.27758 8.86625L8.80633 9.395C8.84129 9.42971 8.86907 9.47098 8.88809 9.51643C8.90711 9.56189 8.91699 9.61065 8.91716 9.65992C8.91733 9.70919 8.9078 9.75802 8.88911 9.80361C8.87041 9.8492 8.84292 9.89066 8.8082 9.92562C8.77348 9.96059 8.73222 9.98837 8.68676 10.0074C8.6413 10.0264 8.59255 10.0363 8.54328 10.0365C8.494 10.0366 8.44518 10.0271 8.39959 10.0084C8.354 9.98971 8.31254 9.96221 8.27758 9.9275ZM9.60507 8.6L9.07258 8.07125C9.00196 8.00063 8.96229 7.90486 8.96229 7.805C8.96229 7.70513 9.00196 7.60936 9.07258 7.53875C9.14319 7.46813 9.23896 7.42846 9.33883 7.42846C9.43869 7.42846 9.53446 7.46813 9.60507 7.53875L10.1338 8.07125C10.1731 8.10486 10.205 8.14623 10.2275 8.19276C10.25 8.23928 10.2626 8.28996 10.2646 8.3416C10.2666 8.39324 10.2579 8.44474 10.2391 8.49287C10.2202 8.54099 10.1916 8.58469 10.1551 8.62124C10.1185 8.65778 10.0748 8.68638 10.0267 8.70523C9.97857 8.72409 9.92707 8.73279 9.87543 8.7308C9.82378 8.7288 9.77311 8.71615 9.72659 8.69364C9.68006 8.67113 9.63869 8.63925 9.60507 8.6Z" fill="#26222C"/>
<path d="M3.5 20.375C3.5 19.5462 2 17.75 2 17.75C2 17.75 0.5 19.5462 0.5 20.375C0.5 20.7728 0.658035 21.1544 0.93934 21.4357C1.22064 21.717 1.60218 21.875 2 21.875C2.39782 21.875 2.77936 21.717 3.06066 21.4357C3.34196 21.1544 3.5 20.7728 3.5 20.375Z" fill="#26222C"/>
</svg>
