<svg width="20" height="20" viewBox="0 0 20 20" fill="none" xmlns="http://www.w3.org/2000/svg">
<path d="M10 3.77778C5.58167 3.77778 2 7.35945 2 11.7778C2 13.2445 2.39583 14.6183 3.085 15.8C3.24083 16.0672 3.53778 16.2222 3.84722 16.2222H16.1528C16.4622 16.2222 16.7592 16.0672 16.915 15.8C17.6042 14.6183 18 13.2445 18 11.7778C18 7.35945 14.4183 3.77778 10 3.77778ZM11.5311 14.4445H8.46889C8.31612 14.182 8.22223 13.8811 8.22223 13.5556C8.22223 12.8097 8.68223 12.1736 9.33334 11.9097V6.44445C9.33334 6.07639 9.63195 5.77778 10 5.77778C10.3681 5.77778 10.6667 6.07639 10.6667 6.44445V11.9097C11.3178 12.1736 11.7778 12.81 11.7778 13.5556C11.7778 13.8811 11.6839 14.182 11.5311 14.4445Z" fill="#FFDB2D"/>
</svg>
