<svg width="20" height="20" viewBox="0 0 20 20" fill="none" xmlns="http://www.w3.org/2000/svg">
<path d="M19.5 9.25H15C14.7094 9.25 14.445 9.41781 14.3212 9.68094L13.2031 12.0572L10.7256 2.56062C10.6397 2.23 10.3409 2 10 2C9.99406 2 9.98719 2 9.98063 2.00062C9.63313 2.00937 9.33625 2.25687 9.26562 2.59812L6.89563 14.0519L5.72281 9.80094C5.63313 9.47562 5.33687 9.25031 4.99937 9.25031H0.5C0.22375 9.25031 0 9.47406 0 9.75031V10.2503C0 10.5266 0.22375 10.7503 0.5 10.7503H4.42875L6.2775 17.4497C6.32105 17.6079 6.41533 17.7474 6.54585 17.8468C6.67638 17.9462 6.83593 18 7 18C7.00781 18 7.01656 18 7.02437 17.9994C7.37094 17.9881 7.66406 17.7409 7.73438 17.4019L10.0841 6.04437L12.2744 14.4394C12.3534 14.7447 12.6162 14.9678 12.9306 14.9966C13.2587 15.0322 13.5438 14.855 13.6788 14.5694L15.4756 10.75H19.5C19.7763 10.75 20 10.5262 20 10.25V9.75C20 9.47375 19.7763 9.25 19.5 9.25Z" fill="#00133D"/>
</svg>
