<svg width="18" height="24" viewBox="0 0 18 24" fill="none" xmlns="http://www.w3.org/2000/svg">
<path d="M9.14625 0.915628C8.96722 0.80467 8.76063 0.746202 8.55 0.746878H8.4375C8.28832 0.746878 8.14524 0.806141 8.03975 0.91163C7.93426 1.01712 7.875 1.16019 7.875 1.30938V6.50688C7.87469 6.62818 7.83517 6.74612 7.76235 6.84313C7.68952 6.94014 7.58729 7.011 7.4709 7.04516C7.35451 7.07932 7.2302 7.07494 7.1165 7.03267C7.0028 6.99041 6.90581 6.91252 6.84 6.81063C6.07421 5.96799 5.1387 5.29703 4.095 4.84188C4.02018 4.80339 3.93726 4.78331 3.85313 4.78331C3.76899 4.78331 3.68607 4.80339 3.61125 4.84188C3.53708 4.89351 3.47674 4.96258 3.43554 5.04301C3.39435 5.12344 3.37355 5.21277 3.375 5.30313C3.02625 8.48688 0 9.80313 0 14.3031C0 16.6901 0.948212 18.9793 2.63604 20.6671C4.32387 22.3549 6.61305 23.3031 9 23.3031C11.3869 23.3031 13.6761 22.3549 15.364 20.6671C17.0518 18.9793 18 16.6901 18 14.3031C18 7.23813 11.8575 2.61438 9.14625 0.915628ZM9 20.9969C7.80653 20.9969 6.66193 20.5228 5.81802 19.6789C4.97411 18.8349 4.5 17.6904 4.5 16.4969C4.5 13.4594 7.56 11.7044 7.875 9.99438C7.88871 9.92367 7.92903 9.86092 7.98763 9.81906C8.04624 9.7772 8.11867 9.75942 8.19 9.76938C9.66271 10.2029 10.9645 11.083 11.9156 12.2881C12.8668 13.4931 13.4204 14.9637 13.5 16.4969C13.5 17.6904 13.0259 18.8349 12.182 19.6789C11.3381 20.5228 10.1935 20.9969 9 20.9969Z" fill="#EBB335"/>
<circle cx="9" cy="15.3719" r="6.75" fill="#EBB335"/>
</svg>
