<svg width="18" height="16" viewBox="0 0 18 16" fill="none" xmlns="http://www.w3.org/2000/svg">
<path d="M17.3334 5.08333C17.3334 3.86776 16.8505 2.70197 15.991 1.84243C15.1314 0.982886 13.9657 0.5 12.7501 0.5C12.0414 0.522082 11.3444 0.686129 10.7002 0.982429C10.0561 1.27873 9.47799 1.70126 9.00008 2.225C8.52218 1.70126 7.94404 1.27873 7.29991 0.982429C6.65578 0.686129 5.95875 0.522082 5.25008 0.5C4.03451 0.5 2.86872 0.982886 2.00918 1.84243C1.14963 2.70197 0.666748 3.86776 0.666748 5.08333C0.666748 8.35 4.62508 11.9583 6.50008 13.8333L8.40008 15.7333C8.51718 15.8506 8.67604 15.9165 8.84175 15.9167H9.15841C9.32412 15.9165 9.48298 15.8506 9.60008 15.7333L11.5001 13.8333C13.3751 11.9583 17.3334 8.35 17.3334 5.08333Z" fill="#FF5C4D"/>
</svg>
