<svg width="317" height="320" viewBox="0 0 317 320" fill="none" xmlns="http://www.w3.org/2000/svg">
<path d="M125.236 212.574C116.192 202.174 101.144 198.093 96.0066 184.006C94.6118 180.186 91.2009 179.149 88.153 182.246C84.1429 186.326 84.4029 191.846 86.2985 197.173C75.8976 189.438 66.4111 180.523 58.0253 170.603C56.4213 168.704 54.8553 166.763 53.1118 165.003C52.1608 164.043 51.0767 163.091 49.7484 162.89C47.4327 162.536 45.3342 164.712 44.9078 167.037C44.4815 169.362 45.2771 171.723 46.1362 173.917C47.6982 177.916 49.5093 181.812 51.5585 185.581C49.4018 183.298 47.3081 180.955 45.2771 178.552C43.6731 176.653 42.1071 174.712 40.3636 172.952C39.4126 171.992 38.3285 171.042 36.9987 170.838C34.683 170.485 32.5845 172.661 32.1581 174.986C31.7317 177.31 32.529 179.672 33.3865 181.866C35.2032 186.517 37.3556 191.027 39.8263 195.36C39.0867 194.595 38.3576 193.823 37.639 193.045C35.9494 191.224 34.2963 189.365 32.4719 187.678C31.4797 186.762 30.3528 185.864 29.015 185.723C26.6851 185.477 24.6896 187.75 24.3694 190.093C24.0492 192.435 24.9543 194.755 25.9116 196.914C27.774 201.1 29.9144 205.155 32.3182 209.051C31.3307 208.317 30.3306 207.611 29.2956 206.941C28.1607 206.213 26.8959 205.525 25.5534 205.622C23.2187 205.782 21.6432 208.378 21.732 210.742C21.8207 213.107 23.1109 215.232 24.4265 217.187C36.0667 234.504 51.679 245.573 69.9699 254.738C72.0399 255.774 74.1289 256.845 75.8518 258.398C79.5971 261.776 80.1709 267.586 79.5765 272.346C77.8077 286.523 73.2635 300.702 76.1561 302.37C78.4512 303.694 106.382 302.917 117.807 302.539C119.139 302.495 120.409 301.962 121.38 301.039C122.35 300.117 122.954 298.869 123.078 297.53L127.992 244.446C128.171 242.493 128.474 240.554 128.9 238.64C128.96 238.373 129.021 238.122 129.078 237.89C131.324 228.96 131.263 219.506 125.236 212.574Z" fill="#FFD1BB"/>
<path d="M85.0732 192.394C85.1941 193.735 85.4382 195.062 85.8023 196.358C85.9815 196.571 86.9388 197.091 87.1369 197.288C88.6126 198.728 93.8462 201.592 95.1602 203.194C95.417 200.71 89.0468 195.04 85.0732 192.394Z" fill="#F4BBA4"/>
<path d="M123.075 286.643C117.369 284.403 115.917 282.963 116.674 276.627C117.851 266.75 120.27 257.17 121.619 247.339C122.227 242.901 122.078 238.019 119.997 233.96C117.713 229.506 113.093 227.419 108.779 225.422C104.258 223.33 99.7299 221.278 95.0161 219.648C85.5473 216.371 76.4098 217.101 69.2107 224.566C65.2102 228.715 61.6534 233.88 56.0774 235.987L55.8856 236.058C51.4793 237.658 50.8342 243.669 54.7888 246.197C59.6991 249.309 64.7663 252.161 69.9699 254.742C72.0399 255.779 74.129 256.85 75.8519 258.403C79.5972 261.781 80.171 267.59 79.5766 272.35C77.8078 286.528 73.2636 300.707 76.1562 302.374C78.4513 303.699 106.382 302.922 117.807 302.544C119.139 302.5 120.409 301.966 121.38 301.044C122.35 300.122 122.954 298.874 123.079 297.534L124.044 287.114C123.733 286.933 123.409 286.775 123.075 286.643Z" fill="#F4BBA4"/>
<path d="M83.4867 195.074C86.6567 197.721 89.9424 200.212 93.3438 202.547C94.3033 203.203 95.2706 203.843 96.2459 204.467C96.3541 204.521 96.4784 204.531 96.5937 204.496C96.709 204.46 96.8067 204.382 96.8671 204.277C96.9275 204.172 96.946 204.047 96.919 203.929C96.8919 203.81 96.8213 203.706 96.7214 203.638C93.3137 201.441 90.0158 199.083 86.8279 196.565C85.9276 195.851 85.0363 195.125 84.154 194.387C84.0631 194.301 83.9429 194.252 83.818 194.252C83.6931 194.252 83.5728 194.301 83.482 194.387C83.3929 194.477 83.3429 194.599 83.3429 194.726C83.3429 194.854 83.3929 194.976 83.482 195.066L83.4867 195.074Z" fill="#2F2C2B"/>
<path d="M85.5361 186.538C85.5123 186.61 85.4933 186.685 85.4727 186.758C85.5519 186.68 85.5789 186.605 85.5361 186.538Z" fill="#2F2C2B"/>
<path d="M50.72 185.459C52.0437 188.12 53.581 190.666 55.3165 193.074C56.1935 194.285 57.1171 195.459 58.0871 196.594C59.0381 197.714 60.0588 198.776 61.0796 199.835C62.1748 200.973 63.2447 202.152 63.9627 203.578C64.03 203.678 64.1328 203.75 64.2502 203.777C64.3677 203.804 64.491 203.786 64.5952 203.725C64.6995 203.664 64.777 203.565 64.8119 203.449C64.8469 203.332 64.8368 203.207 64.7837 203.098C64.1354 201.818 63.1987 200.698 62.2208 199.654C61.219 198.587 60.1856 197.554 59.2203 196.454C57.2758 194.236 55.5173 191.858 53.9629 189.346C53.0848 187.929 52.2733 186.473 51.5283 184.978C51.4973 184.923 51.4558 184.875 51.4063 184.836C51.3568 184.798 51.3003 184.769 51.2399 184.753C51.1796 184.736 51.1166 184.732 51.0545 184.74C50.9925 184.748 50.9327 184.768 50.8785 184.8C50.7716 184.866 50.694 184.971 50.6621 185.093C50.6302 185.215 50.6464 185.345 50.7073 185.456L50.72 185.459Z" fill="#2F2C2B"/>
<path d="M39.2842 195.39C40.5764 197.744 42.0721 199.977 43.7539 202.064C45.4432 204.134 47.2986 206.061 49.3014 207.824C50.4521 208.851 51.606 209.888 52.5601 211.112C52.7186 211.315 53.0658 211.272 53.2322 211.112C53.3182 211.02 53.3662 210.899 53.3662 210.773C53.3662 210.646 53.3182 210.525 53.2322 210.434C52.3969 209.362 51.4063 208.43 50.3998 207.526C49.3933 206.622 48.3932 205.728 47.4454 204.768C45.6057 202.906 43.9343 200.882 42.451 198.72C41.6057 197.488 40.8238 196.215 40.1052 194.902C39.8088 194.362 38.9878 194.845 39.2842 195.382V195.39Z" fill="#2F2C2B"/>
<path d="M31.7966 208.221C32.6557 210.317 34.3326 211.87 35.8891 213.443L41.1846 218.781C42.0658 219.667 43.0771 220.528 43.6603 221.661C43.6891 221.72 43.7295 221.772 43.7792 221.815C43.8289 221.858 43.8867 221.889 43.9491 221.908C44.0114 221.928 44.077 221.934 44.1418 221.926C44.2065 221.918 44.269 221.898 44.3254 221.865C44.3818 221.832 44.4309 221.787 44.4696 221.734C44.5084 221.681 44.5359 221.621 44.5505 221.557C44.5651 221.493 44.5665 221.426 44.5546 221.362C44.5428 221.297 44.5178 221.235 44.4814 221.181C43.9599 220.173 43.1199 219.382 42.3321 218.589L39.6836 215.92L37.0636 213.278C36.2568 212.466 35.4326 211.667 34.6592 210.821C33.8857 209.974 33.1534 209.048 32.7144 207.976C32.6775 207.855 32.5965 207.754 32.4879 207.691C32.3792 207.629 32.251 207.61 32.1295 207.64C31.906 207.702 31.6984 207.99 31.7966 208.23V208.221Z" fill="#2F2C2B"/>
<path d="M46.748 224.32L46.9556 224.112C47.002 224.069 47.036 224.013 47.0539 223.952C47.083 223.895 47.0966 223.832 47.0935 223.768C47.0965 223.704 47.0828 223.64 47.0539 223.582C47.0358 223.521 47.0019 223.466 46.9556 223.422L46.8589 223.347C46.7859 223.304 46.7027 223.281 46.618 223.282L46.4928 223.299C46.4131 223.321 46.3405 223.364 46.282 223.422L46.0759 223.63C46.0295 223.674 45.9956 223.729 45.9777 223.79C45.9481 223.847 45.9338 223.91 45.9365 223.974C45.934 224.039 45.9482 224.103 45.9777 224.16C45.9958 224.221 46.0297 224.276 46.0759 224.32L46.1726 224.395C46.2453 224.438 46.3278 224.461 46.412 224.461L46.5388 224.443C46.618 224.421 46.6902 224.379 46.748 224.32Z" fill="#2F2C2B"/>
<path d="M56.1201 214.866C56.7319 214.866 56.7335 213.906 56.1201 213.906C55.5067 213.906 55.5067 214.866 56.1201 214.866Z" fill="#2F2C2B"/>
<path d="M66.654 207.36C67.2658 207.36 67.2674 206.4 66.654 206.4C66.0406 206.4 66.0406 207.36 66.654 207.36Z" fill="#2F2C2B"/>
<path d="M77.9027 258.058C79.0883 262.557 79.4116 267.229 79.1897 271.87C78.9663 276.578 78.2023 281.24 77.256 285.85C76.7251 288.443 76.1323 291.024 75.5331 293.602C75.503 293.724 75.5207 293.854 75.5827 293.964C75.6447 294.074 75.7461 294.155 75.866 294.192C75.9875 294.226 76.1173 294.21 76.227 294.147C76.3367 294.084 76.4172 293.98 76.4509 293.858C77.5334 289.192 78.5985 284.515 79.3181 279.778C80.0298 275.106 80.4197 270.362 80.0884 265.637C79.912 262.989 79.4875 260.364 78.8204 257.797C78.6619 257.2 77.7458 257.454 77.9043 258.053L77.9027 258.058Z" fill="#2F2C2B"/>
<path d="M217.532 103.126C203.924 89.3904 181.869 89.3904 168.257 103.126C165.763 105.643 162.408 107.098 158.882 107.193C155.357 107.287 151.93 106.013 149.307 103.634L148.747 103.125C135.14 89.3904 113.085 89.3904 99.473 103.125C96.1688 106.26 93.5234 110.034 91.6944 114.223C89.8654 118.412 88.8901 122.929 88.8267 127.506C88.7632 132.084 89.6129 136.627 91.3251 140.866C93.0373 145.104 95.577 148.952 98.793 152.179L109.225 162.72L129.563 183.25C145.544 199.382 171.456 199.382 187.437 183.25L207.774 162.72L217.532 152.87C231.139 139.131 231.137 116.861 217.532 103.126Z" fill="#D05C60"/>
<path d="M224.479 113.138C226.149 116.754 221.127 120.218 218.743 121.954C211.54 127.2 205.999 132.973 200.75 140.16C195.643 147.152 190.58 154.379 183.262 159.2C171.893 166.701 157.234 168.131 144.376 164.01C129.39 159.21 119.492 146.238 111.814 133.104C110.533 130.912 109.252 128.654 107.354 126.979C104.659 124.6 101.965 125.098 98.7201 124.813C91.6225 124.189 91.1216 116.299 93.3581 110.906C89.6236 117.424 88.1312 125.007 89.1135 132.472C90.0958 139.936 93.4975 146.863 98.7883 152.171L109.226 162.72L129.563 183.25C145.544 199.382 171.456 199.382 187.437 183.25L207.774 162.72L217.532 152.87C222.588 147.767 225.967 141.217 227.21 134.109C228.453 127.002 227.499 119.68 224.479 113.138Z" fill="#8E3943"/>
<path d="M126.483 172.758C123.509 171.669 120.303 171.393 117.19 171.958C114.172 172.508 111.319 173.749 108.851 175.587C106.379 177.414 104.264 179.667 102.456 182.158C100.679 184.625 99.24 187.323 98.1764 190.178C97.1133 192.981 96.4659 195.928 96.2554 198.923C96.2332 199.254 96.2269 199.587 96.1841 199.917L96.2269 199.597C96.2022 199.779 96.1553 199.957 96.0874 200.128L96.2079 199.842C96.1857 199.89 96.1587 199.934 96.1365 199.982C96.089 200.054 96.1001 200.042 96.1698 199.947C96.2396 199.853 96.2538 199.842 96.1983 199.906L96.1619 199.944C96.0747 200.022 96.1128 199.994 96.2792 199.856C96.22 199.881 96.1632 199.912 96.1096 199.947L96.3949 199.826C96.2739 199.87 96.1485 199.901 96.0208 199.918L96.3378 199.877C95.7081 199.927 95.0826 200.021 94.4659 200.16C93.824 200.343 93.1967 200.574 92.5893 200.853C91.4882 201.332 90.4479 201.942 89.4906 202.67C88.6981 203.272 87.8406 203.963 87.4143 204.891C87.0545 205.674 86.9705 206.603 87.4761 207.35C88.4002 208.717 90.2039 209.072 91.7286 209.21C93.2534 209.347 94.9145 209.219 96.3378 208.586C97.3744 208.126 98.1463 207.146 98.5473 206.106C98.9959 204.938 98.7835 203.635 98.5949 202.438C98.5521 202.17 98.5093 201.901 98.4728 201.638L98.5156 201.958C98.4188 201.351 98.4033 200.734 98.4697 200.123L98.4269 200.443C98.4533 200.263 98.4904 200.086 98.5378 199.91C98.7042 199.306 98.3333 198.578 97.7073 198.434C97.4036 198.355 97.0816 198.399 96.809 198.555C96.5365 198.711 96.3346 198.968 96.2459 199.272C95.8386 200.757 96.1968 202.24 96.3965 203.725L96.3553 203.405C96.4408 203.951 96.4552 204.507 96.3981 205.058L96.4409 204.738C96.4012 205.023 96.3256 205.303 96.2158 205.57L96.3362 205.283C96.29 205.396 96.2371 205.506 96.1777 205.613C96.146 205.669 96.1128 205.723 96.0779 205.773C96.0208 205.858 95.8671 206.006 96.1143 205.734C95.9308 205.944 95.7344 206.143 95.5263 206.328C95.4011 206.435 95.7815 206.146 95.6325 206.245L95.577 206.285C95.5295 206.317 95.4819 206.346 95.4344 206.373C95.3318 206.432 95.226 206.486 95.1174 206.533L95.4011 206.413C94.895 206.613 94.3655 206.746 93.8256 206.81L94.1426 206.766C93.2035 206.89 92.2525 206.89 91.3134 206.766L91.6304 206.81C91.0365 206.738 90.4543 206.59 89.898 206.368L90.1833 206.49C90.052 206.435 89.9239 206.372 89.7997 206.302C89.7379 206.267 89.6761 206.229 89.6174 206.19L89.5334 206.131C89.405 206.045 89.8171 206.365 89.6919 206.25C89.6029 206.172 89.5187 206.088 89.4399 206C89.6253 206.205 89.6158 206.253 89.516 206.088C89.4867 206.036 89.4608 205.983 89.4383 205.928L89.5572 206.214C89.5186 206.122 89.4924 206.024 89.4795 205.925L89.5207 206.245C89.5077 206.138 89.5077 206.031 89.5207 205.925L89.478 206.245C89.4994 206.109 89.5372 205.977 89.5905 205.851L89.4716 206.138C89.5322 205.998 89.6055 205.864 89.6903 205.738C89.7157 205.699 89.7426 205.662 89.7696 205.626C89.8679 205.482 89.5382 205.91 89.6935 205.725C89.7522 205.654 89.8092 205.586 89.871 205.518C90.0271 205.35 90.1916 205.19 90.364 205.038C90.4654 204.946 90.57 204.858 90.681 204.771C90.7364 204.725 90.7935 204.682 90.849 204.637C90.532 204.888 90.7301 204.73 90.803 204.674C91.7605 203.956 92.7978 203.354 93.8938 202.88L93.61 203.002C94.3479 202.67 95.1252 202.435 95.9226 202.304L95.6056 202.347C96.2316 202.262 96.8831 202.296 97.441 201.947C97.7238 201.763 97.9645 201.52 98.147 201.235C98.3296 200.95 98.4498 200.629 98.4998 200.293C98.5885 199.758 98.598 199.219 98.6393 198.68C98.6773 198.186 98.7301 197.694 98.7978 197.203L98.755 197.523C99.1236 194.85 99.8398 192.237 100.885 189.752L100.765 190.038C101.812 187.53 103.162 185.163 104.784 182.989L104.943 182.787C105.032 182.67 104.784 182.995 104.871 182.88L104.93 182.805C105.039 182.664 105.15 182.523 105.261 182.384C105.473 182.122 105.687 181.863 105.905 181.608C106.341 181.102 106.792 180.611 107.258 180.134C107.724 179.658 108.195 179.211 108.671 178.794C108.915 178.576 109.164 178.365 109.417 178.154C109.55 178.045 109.682 177.931 109.82 177.834C109.809 177.834 109.582 178.016 109.736 177.899L109.814 177.84L110.05 177.662C111.303 176.737 112.657 175.96 114.087 175.347L113.803 175.469C115.289 174.836 116.85 174.402 118.447 174.179L118.13 174.221C119.623 174.02 121.136 174.02 122.63 174.221L122.313 174.179C123.52 174.346 124.706 174.645 125.849 175.072C126.153 175.156 126.478 175.115 126.752 174.958C127.026 174.801 127.227 174.54 127.31 174.234C127.469 173.554 127.106 172.992 126.48 172.758H126.483Z" fill="#2F2C2B"/>
<path d="M97.4062 199.416C97.3793 199.96 97.319 200.59 96.8705 200.894C96.601 201.077 96.2587 201.09 95.9369 201.112C93.8257 201.272 90.6335 203.019 89.1484 204.525C85.5821 208.142 94.2204 208.854 96.2809 207.245C98.9864 205.126 96.647 202.238 97.3904 199.589" fill="#2F2C2B"/>
<path d="M123.755 170.339C124.204 170.979 124.584 171.666 124.887 172.387L124.768 172.101C125.139 172.994 125.394 173.932 125.526 174.891L125.483 174.571C125.546 175.049 125.578 175.53 125.58 176.011C125.58 176.64 126.125 177.242 126.768 177.211C127.082 177.206 127.382 177.078 127.603 176.854C127.825 176.63 127.952 176.328 127.957 176.011C127.954 173.547 127.205 171.142 125.809 169.12C125.646 168.855 125.393 168.659 125.098 168.568C124.789 168.485 124.46 168.529 124.183 168.69C123.679 169.01 123.372 169.782 123.755 170.331V170.339Z" fill="#2F2C2B"/>
<path d="M96.8308 126.771C95.1458 126.516 93.4992 126.048 91.93 125.378L92.2153 125.498C91.2169 125.071 90.252 124.568 89.329 123.994C88.862 123.702 88.4066 123.395 87.9628 123.07L87.6505 122.843C87.5919 122.798 87.5316 122.755 87.4746 122.707C87.4619 122.696 87.6901 122.877 87.5903 122.797L87.492 122.72C87.278 122.549 87.0656 122.374 86.858 122.194C86.0314 121.483 85.2579 120.712 84.5439 119.886C84.3601 119.674 84.1809 119.456 84.005 119.237C83.9226 119.133 83.8338 119.029 83.7577 118.917C83.7482 118.906 83.9162 119.13 83.8417 119.026L83.7799 118.946L83.6214 118.731C83.2833 118.27 82.9637 117.798 82.6625 117.315C81.9715 116.203 81.3709 115.037 80.8667 113.827L80.9856 114.114C80.1262 112.038 79.5401 109.858 79.2421 107.629L79.2849 107.949C79.0566 106.219 78.9679 104.458 79.1945 102.723L79.1517 103.043C79.2718 102.076 79.5181 101.128 79.884 100.226L79.7651 100.512C79.9102 100.165 80.0786 99.8291 80.2692 99.5056C80.3643 99.3456 80.4673 99.1856 80.5735 99.0256C80.629 98.9472 80.8604 98.6608 80.6115 98.9632C80.6702 98.8928 80.7272 98.8208 80.7859 98.7488C81.1239 98.3632 81.347 97.889 81.4294 97.3808C81.4957 97.0105 81.4228 96.6285 81.2249 96.3096C81.0271 95.9906 80.7185 95.7576 80.3595 95.656C80.2066 95.6137 80.0468 95.6025 79.8895 95.6231C79.7322 95.6437 79.5806 95.6957 79.4434 95.776C79.3084 95.8556 79.1903 95.9612 79.0958 96.0868C79.0013 96.2125 78.9322 96.3558 78.8926 96.5084C78.853 96.661 78.8436 96.82 78.865 96.9763C78.8863 97.1326 78.938 97.2831 79.017 97.4192C79.1864 97.6774 79.4363 97.8711 79.7271 97.9696L79.7683 97.9856L79.4846 97.8656C79.586 97.9232 79.5385 97.8832 79.3388 97.7456C79.2025 97.5424 79.1597 97.4928 79.2104 97.5936L79.0915 97.3072C79.1008 97.331 79.1077 97.3557 79.1121 97.3808L79.0693 97.0608C79.0745 97.114 79.0745 97.1676 79.0693 97.2208L79.1105 96.9008C79.0954 96.9946 79.0699 97.0864 79.0344 97.1744L79.1533 96.888C79.0989 96.9982 79.038 97.1051 78.971 97.208C78.9203 97.296 79.0947 97.048 79.0852 97.0592C79.0542 97.0887 79.027 97.1221 79.0043 97.1584C78.895 97.2944 78.7888 97.4352 78.6873 97.576C78.4928 97.835 78.3144 98.1059 78.1532 98.3872C77.8005 99.016 77.5142 99.6805 77.2989 100.37C76.8982 101.702 76.6927 103.087 76.6886 104.48C76.6782 105.927 76.7927 107.373 77.031 108.8C77.2419 110.157 77.5599 111.494 77.982 112.8C78.8426 115.511 80.1542 118.054 81.8605 120.32C83.5315 122.529 85.5739 124.424 87.8946 125.92C90.1453 127.37 92.6418 128.388 95.2585 128.923C95.5755 128.986 95.8798 129.038 96.1921 129.083C96.5019 129.158 96.828 129.114 97.1082 128.962C97.3801 128.801 97.5776 128.538 97.6576 128.23C97.7375 127.922 97.6933 127.595 97.5346 127.32C97.3761 127.077 97.1225 126.813 96.8245 126.77L96.8308 126.771Z" fill="#2F2C2B"/>
<path d="M80.1312 95.1888C80.1217 95.1888 80.0425 95.1136 80.0345 95.1184C80.0266 95.1232 80.2596 95.3072 80.1344 95.192C80.0678 95.1312 79.9981 95.0736 79.9331 95.0096C79.8681 94.9456 79.8222 94.896 79.7746 94.8368C79.7271 94.7776 79.5305 94.5072 79.7508 94.824C79.551 94.5456 79.3804 94.2469 79.242 93.9328L79.3609 94.2192C79.2058 93.8431 79.0992 93.4484 79.0439 93.0448L79.0867 93.3648C79.0368 92.9642 79.0368 92.5589 79.0867 92.1584L79.0439 92.4784C79.1132 91.9935 79.2442 91.5197 79.4338 91.0688L79.3134 91.3552C79.4191 91.1092 79.5403 90.8703 79.6763 90.64C79.7445 90.5232 79.8158 90.4112 79.8903 90.2992C79.9283 90.2448 79.9664 90.1888 80.006 90.1392L80.0853 90.0304C79.9743 90.176 79.9458 90.2128 80.0028 90.1424C80.1607 89.9427 80.3346 89.7565 80.5227 89.5856C80.7177 89.416 80.3801 89.6848 80.4783 89.6144C80.5306 89.5776 80.5814 89.5408 80.6368 89.5072C80.7502 89.4324 80.8695 89.3671 80.9935 89.312L80.7097 89.4336C80.8533 89.3721 81.004 89.329 81.1583 89.3056L80.8413 89.3472C80.954 89.3344 81.0678 89.3344 81.1805 89.3472L80.8635 89.304C80.9588 89.3195 81.0522 89.3447 81.1425 89.3792L80.8587 89.2592L80.9126 89.2832L80.4863 87.6416L77.5065 93.6C77.2275 94.16 77.348 94.9248 77.9344 95.2416C78.4733 95.5296 79.2611 95.4096 79.5606 94.8112L82.5325 88.848C82.6887 88.5667 82.7313 88.2354 82.6514 87.9232C82.5626 87.6464 82.3819 87.328 82.1061 87.2064C81.8036 87.0606 81.4779 86.9701 81.144 86.9392C80.8775 86.9211 80.6098 86.947 80.3515 87.016C79.9359 87.1274 79.5467 87.3222 79.2072 87.5888C78.4793 88.1594 77.8842 88.8842 77.4637 89.712C76.6601 91.2608 76.3843 93.1392 77.0405 94.7952C77.4176 95.7869 78.0758 96.6445 78.933 97.2608C79.0677 97.3405 79.2167 97.3927 79.3714 97.4142C79.5261 97.4357 79.6835 97.4262 79.8345 97.3862C79.9856 97.3463 80.1274 97.2766 80.2517 97.1812C80.3761 97.0858 80.4805 96.9666 80.5592 96.8304C80.8841 96.2128 80.6749 95.5792 80.1328 95.1888H80.1312Z" fill="#2F2C2B"/>
<path d="M79.7508 95.6192C80.1227 95.0603 80.5105 94.5136 80.9142 93.9792L81.0014 93.864C80.8872 94.0128 80.8698 94.0368 80.9459 93.936L81.079 93.7664C81.1821 93.6352 81.2851 93.504 81.396 93.3744C81.6074 93.1131 81.8187 92.8555 82.03 92.6016C82.4675 92.0944 82.9192 91.5984 83.3852 91.1184C83.6166 90.8784 83.8528 90.6384 84.0937 90.408C84.1413 90.3632 84.1872 90.3184 84.2364 90.2752C84.2855 90.232 84.4915 90.064 84.3188 90.2C84.146 90.336 84.379 90.1664 84.4155 90.144C84.4886 90.1014 84.5643 90.0635 84.6421 90.0304L84.3584 90.1504C84.4347 90.1222 84.5132 90.1003 84.593 90.0848L84.276 90.128C84.3561 90.1192 84.4368 90.1192 84.5169 90.128L84.1999 90.0848C84.2412 90.0901 84.282 90.0987 84.3219 90.1104L83.4486 88.9536C83.474 89.171 83.474 89.3907 83.4486 89.608L83.4914 89.288C83.4469 89.5682 83.3698 89.8421 83.2616 90.104L83.3805 89.8176C83.2373 90.1495 83.0637 90.4671 82.8622 90.7664C82.7623 90.9264 82.6561 91.0688 82.5452 91.216C82.4913 91.2896 82.4326 91.36 82.3867 91.4336C82.607 91.1136 82.4088 91.4032 82.3597 91.4672L80.8254 93.44L79.2959 95.4128C79.0867 95.6832 78.8568 95.928 78.7681 96.2688C78.6823 96.5433 78.6906 96.839 78.7917 97.1081C78.8929 97.3772 79.0809 97.6041 79.3255 97.7521C79.5701 97.9 79.8569 97.9604 80.1397 97.9236C80.4225 97.8867 80.6848 97.7547 80.8841 97.5488C81.0829 97.3543 81.2105 97.0974 81.2462 96.8203C81.2819 96.5431 81.2235 96.2618 81.0806 96.0224C80.7414 95.4976 80.0123 95.2224 79.4544 95.592C78.9345 95.9296 78.6619 96.672 79.028 97.2336L79.0439 97.2592L78.9234 96.3344V96.3584L79.2293 95.8288L79.4084 95.68L79.6921 95.56H79.6573H80.2913H80.2596L80.7842 95.8688L80.7604 95.8448L81.0663 96.3744L81.0521 96.328L81.0949 96.648V96.6L81.0537 96.92L81.0711 96.872L80.9506 97.1584C81.0093 97.0624 80.9823 97.0928 80.8714 97.248L80.9697 97.1232L81.163 96.872L81.5514 96.3712L82.3296 95.368L83.8353 93.4256C84.8228 92.1456 86.0084 90.7056 85.8229 88.9632C85.8116 88.7003 85.7227 88.4468 85.5678 88.2352C85.4159 88.0264 85.1986 87.8753 84.9512 87.8064C83.4185 87.4192 82.2916 88.7984 81.3516 89.7968C80.4745 90.7369 79.6476 91.7233 78.8743 92.752C78.4632 93.296 78.0686 93.8523 77.6903 94.4208C77.3432 94.9424 77.573 95.7728 78.1167 96.0624C78.3905 96.2156 78.7123 96.2563 79.0152 96.1761C79.318 96.096 79.5786 95.9011 79.7429 95.632L79.7508 95.6192Z" fill="#2F2C2B"/>
<path d="M81.4277 97.016C82.0903 96.056 82.7797 95.1072 83.4882 94.1744L83.3963 94.296L83.4882 94.1744L83.6055 94.024L83.8639 93.6928C84.052 93.4528 84.2422 93.2144 84.4345 92.9776C84.593 92.7696 84.7642 92.5552 84.9449 92.3584C84.9845 92.3136 85.0273 92.2704 85.0701 92.2288C85.1652 92.1408 85.2603 92.1312 85.0162 92.2592C85.1208 92.2048 85.2095 92.1312 85.3189 92.0816L85.0352 92.2032C85.1012 92.1764 85.1697 92.1566 85.2397 92.144L84.9227 92.1872C84.9722 92.1824 85.0221 92.1824 85.0717 92.1872L84.7547 92.144C84.8035 92.1519 84.8514 92.1653 84.8973 92.184L84.6136 92.0624C84.7721 92.1456 84.4329 91.8832 84.5232 91.9824C84.6136 92.0816 84.3489 91.712 84.4392 91.8816L84.3188 91.5952C84.3448 91.6559 84.3624 91.72 84.3711 91.7856L84.3283 91.4656C84.3346 91.5348 84.3346 91.6044 84.3283 91.6736L84.3711 91.3536C84.3482 91.4831 84.3115 91.6097 84.2617 91.7312L84.3822 91.4448C84.1491 91.9288 83.8816 92.3951 83.5818 92.84C83.2806 93.3338 82.9699 93.8219 82.6498 94.304C82.5087 94.5152 82.3692 94.728 82.2202 94.944C82.1854 94.9936 82.1489 95.0416 82.1125 95.0912C81.9936 95.2512 82.2583 94.9072 82.1664 95.0192C82.0744 95.1312 82.0253 95.1952 81.9508 95.28C81.8018 95.4448 81.643 95.6003 81.4753 95.7456C81.3168 95.8912 81.6988 95.5856 81.5292 95.7024C81.4816 95.7344 81.4341 95.768 81.3849 95.7984C81.2876 95.8583 81.1865 95.9118 81.0822 95.9584L81.3659 95.8368C81.2093 95.9025 81.0454 95.9487 80.8777 95.9744L81.1947 95.9312C81.099 95.9424 81.0026 95.9472 80.9063 95.9456C80.2834 95.9376 79.689 96.5056 79.7175 97.1456C79.7228 97.4622 79.8498 97.7643 80.0716 97.9882C80.2934 98.2121 80.5927 98.3402 80.9063 98.3456C82.2805 98.3664 83.306 97.4336 84.0905 96.4C84.7877 95.449 85.4296 94.458 86.0131 93.432C86.3539 92.856 86.6979 92.2688 86.7137 91.576C86.7186 91.3424 86.677 91.1102 86.5914 90.8931C86.5058 90.676 86.378 90.4784 86.2154 90.3121C86.0529 90.1457 85.8589 90.014 85.645 89.9247C85.4311 89.8353 85.2017 89.7902 84.9702 89.792C84.2411 89.8032 83.5849 90.272 83.1332 90.8176C82.7449 91.2864 82.3645 91.7648 81.9904 92.2464C81.0838 93.4096 80.2073 94.5968 79.372 95.8144C79.2184 96.088 79.1772 96.4115 79.2572 96.7154C79.3372 97.0193 79.5321 97.2794 79.7999 97.44C80.407 97.76 81.0473 97.5616 81.4277 97.0096V97.016Z" fill="#2F2C2B"/>
<path d="M80.1155 98.7936C80.9666 98.8848 81.8194 98.9824 82.6721 99.064C83.3949 99.1344 84.1699 99.1488 84.8673 98.9152C85.3234 98.7746 85.7389 98.5244 86.0782 98.1861C86.4175 97.8478 86.6704 97.4314 86.8153 96.9728C86.9416 96.5367 86.9742 96.0784 86.9108 95.6286C86.8474 95.1788 86.6894 94.7479 86.4475 94.3648C85.8843 93.5194 85.0265 92.919 84.0447 92.6832C83.7409 92.604 83.4186 92.6472 83.1458 92.8036C82.8731 92.9601 82.6714 93.2176 82.5833 93.5216C82.4033 94.2371 82.4527 94.9918 82.7244 95.6772C82.9961 96.3626 83.4761 96.9434 84.0954 97.336C84.3682 97.494 84.6916 97.5375 84.9958 97.457C85.3001 97.3764 85.5608 97.1784 85.7216 96.9056C85.8737 96.6292 85.9143 96.3042 85.8348 95.9984C85.7554 95.6925 85.5621 95.4295 85.2953 95.264C85.2514 95.2279 85.2041 95.1963 85.1542 95.1696C85.1986 95.1792 85.3951 95.3696 85.2429 95.2336C85.1665 95.1647 85.095 95.0903 85.029 95.0112C84.9038 94.8672 85.17 95.216 85.0955 95.096L85.0179 94.9776C84.9584 94.8804 84.9055 94.7794 84.8594 94.6752L84.9798 94.9616C84.9028 94.7694 84.8496 94.5685 84.8213 94.3632L84.8641 94.6832C84.8419 94.4961 84.8419 94.307 84.8641 94.12L84.8213 94.44C84.8342 94.3466 84.8527 94.2542 84.8768 94.1632L83.4155 95.0016C83.5887 95.0421 83.7588 95.0956 83.9242 95.1616L83.6405 95.0416C83.7866 95.1045 83.9275 95.1789 84.0621 95.264C84.1128 95.296 84.1604 95.3328 84.2095 95.3648C83.8925 95.1728 84.1176 95.2896 84.1984 95.3648C84.2543 95.4177 84.3072 95.4738 84.3569 95.5328C84.4314 95.616 84.4758 95.76 84.3205 95.4736C84.3966 95.6128 84.4901 95.736 84.5551 95.8832L84.4362 95.5968C84.5028 95.7591 84.5502 95.9288 84.5772 96.1024L84.536 95.7824C84.5614 95.9757 84.5614 96.1715 84.536 96.3648L84.5788 96.0448C84.554 96.197 84.5131 96.3461 84.4568 96.4896L84.5757 96.2016C84.5364 96.289 84.4919 96.3739 84.4425 96.456C84.3379 96.6368 84.6391 96.2496 84.4885 96.3968C84.4536 96.4304 84.4235 96.4656 84.3886 96.4992C84.311 96.5728 84.219 96.5872 84.4806 96.4368C84.4409 96.4592 84.4045 96.4912 84.3665 96.5152C84.2809 96.5685 84.1913 96.615 84.0986 96.6544L84.3823 96.5344C84.1727 96.6175 83.954 96.675 83.7309 96.7056L84.0479 96.664C83.4749 96.7168 82.8978 96.7023 82.3281 96.6208L80.1092 96.3856C79.8741 96.3859 79.6444 96.4565 79.449 96.5885C79.2536 96.7204 79.1013 96.9078 79.0113 97.127C78.9212 97.3463 78.8975 97.5875 78.9431 97.8203C78.9888 98.0531 79.1016 98.267 79.2675 98.4352C79.5001 98.6458 79.7972 98.7694 80.1092 98.7856L80.1155 98.7936Z" fill="#2F2C2B"/>
<path d="M96.0018 125.717C96.0399 125.8 96.0763 125.877 96.1128 125.968L95.9939 125.682C96.3111 126.444 96.528 127.246 96.639 128.066L96.5962 127.746C96.7016 128.566 96.7016 129.397 96.5962 130.218L96.639 129.898C96.5568 130.512 96.4151 131.116 96.2158 131.702C96.0129 132.296 96.4472 133.042 97.0463 133.179C97.35 133.256 97.6713 133.212 97.9434 133.056C98.2155 132.899 98.4176 132.643 98.5077 132.341C98.9259 131.107 99.1066 129.803 99.0403 128.501C98.9665 127.116 98.6308 125.758 98.0512 124.501C97.8946 124.231 97.6399 124.033 97.3411 123.949C97.0318 123.866 96.7027 123.91 96.425 124.07C96.1581 124.229 95.9626 124.486 95.8798 124.787C95.8106 125.1 95.8527 125.427 95.9986 125.712L96.0018 125.717Z" fill="#2F2C2B"/>
<path d="M191.151 175.072C192.294 174.643 193.48 174.343 194.687 174.174L194.37 174.216C195.864 174.015 197.377 174.015 198.87 174.216L198.553 174.174C200.15 174.398 201.711 174.831 203.197 175.464L202.913 175.342C204.182 175.886 205.393 176.559 206.526 177.352C206.659 177.446 206.792 177.541 206.923 177.638C206.995 177.69 207.064 177.742 207.134 177.798C207.204 177.854 207.47 178.069 207.18 177.832C207.44 178.045 207.703 178.251 207.958 178.472C208.452 178.892 208.927 179.33 209.385 179.786C210.337 180.723 211.226 181.723 212.046 182.781L212.105 182.856C212.22 183.006 212.041 182.771 212.033 182.763C212.089 182.827 212.136 182.899 212.192 182.966C212.293 183.101 212.393 183.237 212.493 183.374C212.692 183.649 212.886 183.926 213.076 184.206C213.459 184.767 213.823 185.341 214.168 185.928C214.949 187.249 215.637 188.623 216.229 190.04L216.108 189.754C217.154 192.238 217.87 194.851 218.239 197.525L218.196 197.205C218.259 197.685 218.312 198.165 218.354 198.645C218.399 199.195 218.408 199.744 218.497 200.29C218.545 200.621 218.662 200.938 218.84 201.22C219.018 201.502 219.252 201.743 219.529 201.928C220.098 202.288 220.751 202.258 221.391 202.344L221.074 202.301C221.872 202.432 222.649 202.666 223.387 202.998L223.103 202.877C224.21 203.35 225.257 203.954 226.224 204.675C226.297 204.731 226.487 204.89 226.178 204.638C226.233 204.683 226.291 204.726 226.346 204.773C226.446 204.854 226.544 204.933 226.639 205.022C226.813 205.173 226.98 205.334 227.137 205.502C227.203 205.573 227.267 205.648 227.329 205.723C227.487 205.909 227.154 205.48 227.253 205.624C227.276 205.656 227.3 205.688 227.322 205.722C227.412 205.852 227.488 205.991 227.551 206.136L227.432 205.85C227.485 205.976 227.523 206.108 227.544 206.243L227.501 205.923C227.514 206.029 227.514 206.137 227.501 206.243L227.543 205.923C227.53 206.023 227.504 206.12 227.465 206.213L227.584 205.926C227.562 205.982 227.535 206.035 227.505 206.086C227.49 206.112 227.473 206.136 227.457 206.16C227.37 206.299 227.595 205.984 227.589 205.989C227.498 206.064 227.43 206.168 227.33 206.248C227.199 206.363 227.611 206.043 227.489 206.13L227.405 206.189C227.349 206.226 227.292 206.261 227.235 206.293C227.107 206.366 226.975 206.431 226.839 206.488L227.124 206.366C226.568 206.588 225.986 206.736 225.392 206.808L225.709 206.765C224.77 206.889 223.819 206.889 222.88 206.765L223.197 206.808C222.657 206.745 222.127 206.611 221.621 206.411L221.905 206.531C221.796 206.484 221.69 206.431 221.588 206.371C221.54 206.344 221.491 206.315 221.445 206.283L221.39 206.243C221.241 206.144 221.621 206.434 221.496 206.326C221.287 206.141 221.091 205.943 220.908 205.733C221.149 205.998 221.014 205.874 220.96 205.794C220.906 205.714 220.881 205.672 220.844 205.608C220.785 205.501 220.732 205.391 220.686 205.278L220.806 205.565C220.697 205.298 220.621 205.019 220.581 204.733L220.624 205.053C220.567 204.502 220.581 203.947 220.667 203.4L220.624 203.72C220.825 202.235 221.184 200.752 220.783 199.267C220.624 198.662 219.931 198.229 219.321 198.429C219.02 198.518 218.765 198.722 218.61 198.998C218.456 199.273 218.413 199.599 218.491 199.906C218.538 200.081 218.575 200.259 218.602 200.438L218.559 200.118C218.624 200.729 218.609 201.347 218.513 201.954L218.556 201.634C218.47 202.274 218.358 202.898 218.28 203.533C218.2 204.144 218.206 204.763 218.296 205.373C218.403 205.999 218.642 206.595 218.998 207.12C219.353 207.644 219.817 208.085 220.356 208.413C220.959 208.755 221.62 208.98 222.304 209.078C223.113 209.217 223.935 209.271 224.755 209.238C225.57 209.216 226.379 209.098 227.167 208.886C227.891 208.682 228.616 208.362 229.166 207.83C229.469 207.538 229.692 207.172 229.812 206.767C229.933 206.362 229.948 205.932 229.855 205.52C229.676 204.643 228.999 203.891 228.354 203.32C227.416 202.499 226.379 201.8 225.268 201.24C224.179 200.682 223.002 200.176 221.781 199.99C221.42 199.936 221.058 199.915 220.697 199.872L221.014 199.914C220.886 199.896 220.761 199.865 220.64 199.821L220.925 199.942C220.868 199.917 220.811 199.875 220.756 199.851C220.914 199.984 220.96 200.019 220.892 199.957C220.872 199.939 220.854 199.921 220.837 199.901C220.699 199.774 220.984 200.157 220.898 199.978C220.876 199.93 220.849 199.885 220.827 199.837L220.947 200.123C220.88 199.953 220.833 199.774 220.808 199.592L220.851 199.912C220.759 199.218 220.757 198.509 220.681 197.811C220.592 197.011 220.478 196.198 220.329 195.4C220.06 193.972 219.689 192.566 219.22 191.192C218.246 188.302 216.892 185.558 215.194 183.032C213.539 180.545 211.536 178.313 209.245 176.408C206.801 174.41 203.969 172.888 200.894 172.165C197.834 171.424 194.635 171.5 191.612 172.386C191.253 172.492 190.898 172.613 190.547 172.747C190.252 172.838 189.999 173.034 189.835 173.298C189.676 173.578 189.633 173.91 189.717 174.222C189.9 174.798 190.555 175.294 191.178 175.061L191.151 175.072Z" fill="#2F2C2B"/>
<path d="M219.594 199.416C219.621 199.96 219.681 200.59 220.13 200.894C220.399 201.077 220.741 201.09 221.063 201.112C223.174 201.272 226.366 203.019 227.852 204.525C231.418 208.142 222.78 208.854 220.719 207.245C218.014 205.126 220.353 202.238 219.61 199.589" fill="#2F2C2B"/>
<path d="M191.191 169.128C189.795 171.15 189.046 173.555 189.043 176.019C189.043 176.648 189.59 177.249 190.232 177.219C190.545 177.214 190.845 177.086 191.066 176.862C191.288 176.638 191.415 176.336 191.42 176.019C191.422 175.537 191.454 175.057 191.517 174.579L191.474 174.899C191.606 173.94 191.861 173.002 192.232 172.109L192.113 172.395C192.416 171.673 192.796 170.987 193.245 170.347C193.323 170.211 193.375 170.061 193.396 169.904C193.417 169.748 193.407 169.589 193.368 169.437C193.328 169.284 193.259 169.141 193.164 169.016C193.07 168.89 192.952 168.785 192.817 168.706C192.207 168.386 191.576 168.587 191.191 169.136V169.128Z" fill="#2F2C2B"/>
<path d="M220.802 129.085C223.436 128.675 225.972 127.772 228.28 126.424C230.596 125.085 232.662 123.348 234.385 121.291C236.242 119.05 237.702 116.502 238.701 113.76C239.669 111.111 240.211 108.323 240.305 105.501C240.397 102.781 239.975 99.7968 238.295 97.5728C238.202 97.4496 238.108 97.3264 238.012 97.2048L237.932 97.1072C237.853 97.0144 238.04 97.256 238.04 97.2512C238.04 97.2464 237.947 97.1088 237.932 97.0912C237.899 97.0327 237.87 96.9724 237.844 96.9104L237.962 97.1968C237.927 97.1088 237.901 97.017 237.886 96.9232L237.928 97.2432C237.922 97.19 237.922 97.1364 237.928 97.0832L237.885 97.4032C237.889 97.378 237.896 97.3534 237.905 97.3296L237.787 97.616C237.837 97.5152 237.787 97.5648 237.658 97.768C237.458 97.9056 237.411 97.9456 237.512 97.888L237.229 98.008L237.27 97.992C237.564 97.9004 237.816 97.705 237.98 97.4416C238.059 97.3055 238.111 97.155 238.132 96.9987C238.153 96.8424 238.144 96.6834 238.104 96.5307C238.065 96.3781 237.996 96.2349 237.901 96.1092C237.807 95.9836 237.688 95.8779 237.554 95.7984C237.287 95.6576 236.931 95.5632 236.637 95.6784C236.27 95.7988 235.956 96.0442 235.748 96.3728C235.597 96.6379 235.527 96.9427 235.548 97.248C235.606 97.8152 235.839 98.3497 236.214 98.776C236.281 98.8398 236.34 98.9119 236.389 98.9904C236.377 98.9648 236.222 98.7664 236.316 98.8992L236.408 99.0272C236.515 99.1872 236.618 99.3472 236.715 99.5072C236.912 99.8392 237.086 100.185 237.235 100.541L237.116 100.254C237.483 101.157 237.729 102.105 237.85 103.074L237.807 102.754C238.031 104.488 237.945 106.25 237.717 107.979L237.76 107.659C237.462 109.888 236.875 112.069 236.016 114.144L236.135 113.858C235.691 114.922 235.172 115.954 234.583 116.944C234.285 117.443 233.968 117.931 233.632 118.406C233.555 118.517 233.474 118.626 233.398 118.726C233.352 118.789 233.304 118.851 233.258 118.915C233.212 118.979 233.066 119.168 233.19 119.006L233.139 119.072L233.014 119.232C232.917 119.354 232.821 119.474 232.721 119.594C232.025 120.424 231.269 121.202 230.459 121.92C230.248 122.103 230.036 122.283 229.825 122.459L229.529 122.699C229.481 122.742 229.432 122.781 229.38 122.818L229.47 122.747L229.369 122.824C228.946 123.15 228.506 123.461 228.048 123.755C227.012 124.429 225.921 125.011 224.786 125.498L225.072 125.378C223.498 126.049 221.847 126.517 220.158 126.771C219.884 126.811 219.581 127.091 219.448 127.322C219.289 127.602 219.246 127.934 219.328 128.246C219.411 128.548 219.607 128.804 219.874 128.963C220.157 129.108 220.48 129.151 220.791 129.085H220.802Z" fill="#2F2C2B"/>
<path d="M238.067 97.2608C238.781 96.7655 239.358 96.0941 239.742 95.3104C240.129 94.5132 240.33 93.6377 240.331 92.7504C240.309 91.8029 240.088 90.8708 239.682 90.016C239.516 89.6491 239.316 89.2993 239.083 88.9712C238.833 88.5992 238.546 88.2545 238.226 87.9424C237.807 87.5419 237.307 87.2378 236.761 87.0512C236.495 86.9633 236.216 86.9232 235.937 86.9328C235.573 86.954 235.217 87.0475 234.889 87.208C234.621 87.365 234.425 87.6226 234.344 87.9248C234.271 88.2374 234.313 88.5662 234.463 88.8496L237.433 94.8176C237.714 95.3792 238.543 95.584 239.059 95.248C239.329 95.0831 239.524 94.8195 239.605 94.5123C239.686 94.205 239.646 93.8781 239.494 93.6L236.522 87.6368L236.092 89.28L236.146 89.256L235.862 89.376C235.953 89.3415 236.046 89.3163 236.141 89.3008L235.824 89.344C235.938 89.3312 236.052 89.3312 236.165 89.344L235.848 89.3024C236.002 89.3259 236.153 89.3689 236.297 89.4304L236.013 89.3088C236.122 89.3594 236.228 89.4171 236.33 89.4816C236.382 89.5152 236.433 89.552 236.488 89.5872C236.675 89.7152 236.29 89.4128 236.446 89.5568C236.639 89.737 236.821 89.93 236.989 90.1344C237.067 90.2256 236.81 89.8896 236.966 90.104C237.005 90.1568 237.045 90.2128 237.083 90.264C237.157 90.3744 237.23 90.488 237.298 90.6032C237.442 90.8419 237.568 91.0905 237.677 91.3472L237.558 91.0608C237.748 91.5117 237.879 91.9855 237.948 92.4704L237.905 92.1504C237.955 92.5509 237.955 92.9562 237.905 93.3568L237.948 93.0368C237.893 93.4404 237.786 93.8351 237.631 94.2112L237.75 93.9248C237.683 94.0831 237.607 94.2375 237.523 94.3872C237.484 94.456 237.441 94.5248 237.397 94.5936C237.371 94.6336 237.238 94.7728 237.238 94.816C237.238 94.7952 237.422 94.5888 237.313 94.7136C237.287 94.744 237.262 94.776 237.235 94.8064C237.181 94.8656 237.127 94.9248 237.076 94.9808C237.026 95.0368 236.946 95.1056 236.878 95.1648C236.845 95.1936 236.72 95.288 236.878 95.1648C237.037 95.0416 236.878 95.1648 236.855 95.1792C236.593 95.3442 236.399 95.5986 236.308 95.896C236.226 96.2083 236.269 96.5406 236.428 96.8208C236.745 97.3264 237.512 97.6416 238.054 97.2512L238.067 97.2608Z" fill="#2F2C2B"/>
<path d="M239.302 94.4081C237.934 92.3324 236.344 90.4148 234.561 88.6896C233.87 88.0288 233.019 87.5456 232.041 87.7936C231.794 87.8635 231.577 88.0144 231.424 88.2224C231.269 88.4338 231.18 88.6874 231.169 88.9504C230.984 90.6864 232.169 92.1392 233.157 93.4129L234.662 95.3553L235.441 96.3585L235.829 96.8593L236.022 97.1105L236.121 97.2353C236.01 97.0753 235.983 97.0497 236.041 97.1457L235.921 96.8593L235.938 96.9073L235.897 96.5873V96.6353L235.94 96.3153L235.926 96.3617L236.232 95.8321L236.208 95.8561L236.732 95.5473H236.701H237.335H237.3L237.584 95.6673L237.774 95.8177L238.08 96.3473V96.3233L237.959 97.2481L237.975 97.2225C238.132 96.9471 238.175 96.6206 238.095 96.3135C238.015 96.0064 237.819 95.7432 237.549 95.5809C237.291 95.4382 236.99 95.3948 236.703 95.4589C236.416 95.523 236.162 95.6901 235.987 95.9292C235.813 96.1683 235.731 96.4632 235.755 96.759C235.78 97.0549 235.911 97.3315 236.122 97.5377C236.323 97.7332 236.581 97.8583 236.857 97.8946C237.134 97.9309 237.415 97.8765 237.658 97.7393C237.9 97.5896 238.087 97.365 238.191 97.0991C238.296 96.8332 238.312 96.5402 238.238 96.2641C238.149 95.9233 237.921 95.6785 237.71 95.4081L236.175 93.44L234.643 91.4656C234.594 91.4016 234.396 91.1168 234.616 91.432C234.564 91.3584 234.507 91.288 234.458 91.2144C234.35 91.0672 234.244 90.9184 234.141 90.7648C233.939 90.4655 233.766 90.1479 233.623 89.816L233.742 90.1024C233.633 89.8405 233.556 89.5666 233.512 89.2864L233.555 89.6064C233.529 89.389 233.529 89.1694 233.555 88.952L232.681 90.1088C232.721 90.0971 232.762 90.0885 232.803 90.0832L232.486 90.1264C232.566 90.1176 232.647 90.1176 232.727 90.1264L232.41 90.0832C232.49 90.0987 232.568 90.1206 232.645 90.1488L232.361 90.0288C232.439 90.0619 232.515 90.0998 232.588 90.1424C232.637 90.1834 232.69 90.2198 232.746 90.2512C232.588 90.1296 232.567 90.1088 232.662 90.1872L232.762 90.2736C232.811 90.3168 232.857 90.3616 232.905 90.4064C233.146 90.6384 233.38 90.8768 233.613 91.1168C234.079 91.5968 234.531 92.0928 234.968 92.6C235.185 92.8539 235.396 93.1115 235.602 93.3729C235.709 93.5025 235.812 93.6337 235.919 93.7649L236.052 93.9345C236.129 94.0353 236.111 94.0113 235.997 93.8625L236.084 93.9776C236.488 94.511 236.876 95.0577 237.248 95.6177C237.593 96.1377 238.311 96.4177 238.874 96.0481C239.387 95.7137 239.666 94.9633 239.3 94.4065L239.302 94.4081Z" fill="#2F2C2B"/>
<path d="M237.626 95.8048C236.877 94.7136 236.095 93.648 235.289 92.6048C234.916 92.1216 234.537 91.6416 234.154 91.1648C233.715 90.624 233.271 90.1392 232.6 89.8848C232.381 89.8058 232.149 89.7721 231.916 89.786C231.684 89.7999 231.457 89.8609 231.248 89.9655C231.04 90.07 230.855 90.216 230.704 90.3946C230.552 90.5732 230.439 90.7808 230.369 91.0048C230.152 91.6992 230.413 92.4272 230.759 93.0272C231.361 94.0752 231.998 95.1072 232.695 96.1008C233.509 97.2496 234.597 98.3632 236.098 98.3408C236.721 98.3328 237.317 97.7968 237.287 97.1408C237.282 96.8241 237.156 96.5218 236.934 96.2978C236.712 96.0738 236.412 95.9458 236.098 95.9408C236.002 95.9424 235.906 95.9376 235.81 95.9264L236.127 95.9696C235.959 95.9439 235.795 95.8977 235.639 95.832L235.923 95.9536C235.818 95.907 235.717 95.8536 235.62 95.7936C235.579 95.768 235.539 95.7424 235.499 95.7136C235.293 95.5712 235.647 95.8416 235.552 95.76C235.384 95.6162 235.225 95.4618 235.076 95.2976C235.002 95.2128 234.93 95.1248 234.859 95.0384C234.701 94.8592 235.032 95.2752 234.894 95.0864C234.857 95.0368 234.821 94.9888 234.786 94.9392C234.637 94.7312 234.498 94.5184 234.357 94.2992C234.04 93.8278 233.735 93.351 233.444 92.8688C233.137 92.4127 232.864 91.9352 232.624 91.44L232.745 91.7264C232.695 91.6049 232.658 91.4783 232.635 91.3488L232.678 91.6688C232.672 91.5996 232.672 91.53 232.678 91.4608L232.635 91.7808C232.644 91.7152 232.662 91.6512 232.688 91.5904L232.567 91.8768C232.651 91.7168 232.382 92.072 232.483 91.9776C232.585 91.8832 232.222 92.1472 232.393 92.0576L232.109 92.1792C232.155 92.1605 232.203 92.1471 232.252 92.1392L231.935 92.1824C231.984 92.1776 232.034 92.1776 232.084 92.1824L231.767 92.1392C231.837 92.1518 231.905 92.1717 231.971 92.1984L231.687 92.0768C231.721 92.0912 231.99 92.2528 231.99 92.2544C231.99 92.256 231.735 92.0352 231.936 92.224L232.042 92.3312C232.231 92.5344 232.399 92.7584 232.572 92.9712C232.745 93.184 232.938 93.4272 233.119 93.6576C233.206 93.7664 233.291 93.8768 233.377 93.9872L233.518 94.168L233.588 94.2592L233.518 94.168C233.586 94.2907 233.672 94.4027 233.772 94.5008L234.024 94.8368C234.205 95.0811 234.386 95.327 234.566 95.5744C234.908 96.0502 235.245 96.5302 235.575 97.0144C235.738 97.2799 235.991 97.4762 236.287 97.5664C236.596 97.649 236.926 97.6053 237.203 97.4448C237.71 97.1152 238.008 96.3552 237.63 95.8032L237.626 95.8048Z" fill="#2F2C2B"/>
<path d="M236.885 96.3936L234.666 96.6288C234.096 96.7103 233.519 96.7248 232.946 96.672L233.263 96.7136C233.04 96.683 232.821 96.6256 232.611 96.5424L232.895 96.6624C232.811 96.6266 232.729 96.5849 232.651 96.5376C232.607 96.5032 232.561 96.4722 232.513 96.4448C232.562 96.4624 232.749 96.6432 232.605 96.5072C232.57 96.4736 232.538 96.4384 232.505 96.4048C232.374 96.2656 232.638 96.6064 232.567 96.488C232.512 96.3984 232.462 96.3054 232.418 96.2096L232.537 96.4976C232.481 96.3542 232.44 96.2051 232.415 96.0528L232.458 96.3728C232.432 96.1795 232.432 95.9837 232.458 95.7904L232.416 96.1104C232.443 95.9368 232.491 95.7671 232.558 95.6048L232.439 95.8912C232.504 95.744 232.597 95.6208 232.673 95.4816C232.532 95.7408 232.554 95.632 232.635 95.5408C232.689 95.4816 232.745 95.4256 232.803 95.3728C232.832 95.3456 232.862 95.32 232.892 95.2944C232.985 95.2176 232.952 95.2432 232.792 95.3728C232.843 95.3456 232.89 95.3024 232.939 95.272C233.074 95.1869 233.215 95.1125 233.361 95.0496L233.077 95.1696C233.243 95.1037 233.413 95.0502 233.586 95.0096L232.125 94.1712C232.149 94.2622 232.167 94.3547 232.18 94.448L232.137 94.128C232.16 94.3151 232.16 94.5041 232.137 94.6912L232.18 94.3712C232.152 94.5765 232.099 94.7775 232.022 94.9696L232.142 94.6832C232.101 94.7788 232.055 94.8718 232.003 94.9616C231.979 95.0016 231.952 95.04 231.927 95.0816C231.819 95.2656 232.122 94.8608 231.977 95.0192C231.914 95.088 231.854 95.1584 231.784 95.2224C231.714 95.2864 231.597 95.3168 231.852 95.1776C231.803 95.2048 231.759 95.2432 231.711 95.272C231.185 95.6048 230.93 96.3584 231.285 96.9136C231.64 97.4688 232.347 97.7008 232.911 97.344C233.53 96.9514 234.01 96.3707 234.282 95.6853C234.554 94.9998 234.603 94.2451 234.423 93.5296C234.335 93.2258 234.133 92.9686 233.86 92.8122C233.588 92.6558 233.265 92.6124 232.962 92.6912C232.148 92.8812 231.415 93.3258 230.866 93.9616C230.545 94.3424 230.313 94.7911 230.187 95.2746C230.061 95.7582 230.044 96.2642 230.137 96.7552C230.224 97.1875 230.41 97.593 230.682 97.9384C230.954 98.2838 231.303 98.5593 231.7 98.7424C232.451 99.0567 233.268 99.1782 234.077 99.096C235.019 99.0256 235.959 98.9024 236.897 98.8016C237.211 98.7921 237.51 98.6675 237.739 98.4512C237.954 98.2213 238.071 97.916 238.067 97.6C238.042 97.0064 237.541 96.3296 236.878 96.4L236.885 96.3936Z" fill="#2F2C2B"/>
<path d="M218.946 124.506C218.366 125.763 218.03 127.121 217.957 128.506C217.89 129.808 218.071 131.112 218.489 132.346C218.69 132.938 219.313 133.392 219.95 133.184C220.532 132.994 220.998 132.342 220.781 131.707C220.582 131.121 220.44 130.517 220.358 129.902L220.401 130.222C220.295 129.402 220.295 128.571 220.401 127.75L220.358 128.07C220.469 127.251 220.686 126.449 221.003 125.686L220.884 125.973C220.92 125.888 220.957 125.813 220.995 125.722C221.147 125.439 221.189 125.109 221.114 124.797C221.03 124.496 220.835 124.24 220.569 124.08C220.046 123.8 219.218 123.901 218.942 124.51L218.946 124.506Z" fill="#2F2C2B"/>
<path d="M191.764 212.574C200.808 202.174 215.856 198.093 220.993 184.006C222.388 180.186 225.799 179.149 228.847 182.246C232.857 186.326 232.597 191.846 230.702 197.173C241.102 189.438 250.589 180.523 258.975 170.603C260.579 168.704 262.145 166.763 263.888 165.003C264.839 164.043 265.923 163.091 267.252 162.89C269.567 162.536 271.666 164.712 272.092 167.037C272.519 169.362 271.723 171.723 270.864 173.917C269.302 177.916 267.491 181.812 265.442 185.581C267.598 183.298 269.692 180.955 271.723 178.552C273.327 176.653 274.893 174.712 276.636 172.952C277.587 171.992 278.672 171.042 280.001 170.838C282.317 170.485 284.416 172.661 284.842 174.986C285.268 177.31 284.471 179.672 283.614 181.866C281.796 186.516 279.642 191.026 277.171 195.358C277.91 194.594 278.639 193.822 279.358 193.043C281.047 191.222 282.701 189.363 284.525 187.677C285.517 186.76 286.644 185.862 287.982 185.722C290.312 185.475 292.307 187.749 292.627 190.091C292.948 192.434 292.043 194.754 291.085 196.912C289.223 201.099 287.082 205.154 284.679 209.05C285.666 208.315 286.666 207.61 287.701 206.939C288.836 206.211 290.101 205.523 291.443 205.621C293.778 205.781 295.354 208.376 295.265 210.741C295.176 213.106 293.886 215.23 292.57 217.186C280.93 234.502 265.318 245.571 247.027 254.736C244.957 255.773 242.868 256.843 241.145 258.397C237.4 261.774 236.826 267.584 237.42 272.344C239.189 286.522 243.733 300.701 240.841 302.368C238.546 303.693 210.615 302.915 199.19 302.538C197.858 302.493 196.588 301.96 195.617 301.038C194.647 300.115 194.043 298.868 193.918 297.528L189.005 244.445C188.826 242.492 188.523 240.552 188.097 238.638C188.036 238.371 187.976 238.12 187.919 237.888C185.676 228.96 185.737 219.506 191.764 212.574Z" fill="#FFD1BB"/>
<path d="M231.927 192.394C231.806 193.735 231.562 195.062 231.198 196.358C231.019 196.571 230.061 197.091 229.863 197.288C228.387 198.728 223.154 201.592 221.84 203.194C221.583 200.71 227.953 195.04 231.927 192.394Z" fill="#F4BBA4"/>
<path d="M193.925 286.643C199.631 284.403 201.083 282.963 200.327 276.627C199.149 266.75 196.73 257.17 195.381 247.339C194.773 242.901 194.922 238.019 197.003 233.96C199.287 229.506 203.907 227.419 208.221 225.422C212.742 223.33 217.27 221.278 221.984 219.648C231.453 216.371 240.59 217.101 247.789 224.566C251.79 228.715 255.347 233.88 260.923 235.987L261.114 236.058C265.521 237.658 266.166 243.669 262.211 246.197C257.301 249.309 252.234 252.161 247.03 254.742C244.96 255.779 242.871 256.85 241.148 258.403C237.403 261.781 236.829 267.59 237.423 272.35C239.192 286.528 243.736 300.707 240.844 302.374C238.549 303.699 210.618 302.922 199.193 302.544C197.861 302.5 196.591 301.966 195.62 301.044C194.65 300.122 194.046 298.874 193.922 297.534L192.956 287.114C193.267 286.933 193.591 286.775 193.925 286.643Z" fill="#F4BBA4"/>
<path d="M232.837 194.4C229.724 197.005 226.491 199.453 223.139 201.744C222.188 202.394 221.232 203.029 220.269 203.651C220.169 203.719 220.098 203.823 220.071 203.941C220.044 204.06 220.063 204.184 220.123 204.29C220.184 204.395 220.281 204.473 220.397 204.508C220.512 204.544 220.636 204.534 220.744 204.48C224.209 202.24 227.562 199.84 230.801 197.28C231.711 196.56 232.609 195.827 233.496 195.08C233.585 194.99 233.635 194.868 233.635 194.741C233.635 194.614 233.585 194.492 233.496 194.402C233.406 194.314 233.285 194.265 233.16 194.265C233.035 194.265 232.914 194.314 232.824 194.402L232.837 194.4Z" fill="#2F2C2B"/>
<path d="M231.464 186.538C231.488 186.61 231.507 186.685 231.527 186.758C231.448 186.68 231.421 186.605 231.464 186.538Z" fill="#2F2C2B"/>
<path d="M265.467 184.974C264.139 187.635 262.597 190.182 260.858 192.589C260.001 193.773 259.096 194.919 258.144 196.027C257.185 197.147 256.166 198.198 255.149 199.259C254.039 200.421 252.942 201.645 252.212 203.099C252.151 203.21 252.135 203.34 252.167 203.462C252.199 203.584 252.276 203.689 252.383 203.755C252.491 203.819 252.621 203.837 252.743 203.805C252.865 203.773 252.969 203.694 253.033 203.584C253.667 202.322 254.578 201.253 255.54 200.235C256.546 199.171 257.575 198.131 258.54 197.026C260.502 194.775 262.279 192.367 263.853 189.826C264.731 188.408 265.543 186.952 266.288 185.458C266.349 185.347 266.365 185.217 266.333 185.095C266.301 184.973 266.224 184.867 266.117 184.802C266.008 184.737 265.879 184.719 265.757 184.752C265.635 184.784 265.531 184.863 265.467 184.973V184.974Z" fill="#2F2C2B"/>
<path d="M276.9 194.907C275.634 197.221 274.165 199.417 272.512 201.467C270.831 203.518 268.986 205.428 266.998 207.178C265.855 208.197 264.712 209.227 263.766 210.442C263.681 210.534 263.633 210.655 263.633 210.781C263.633 210.907 263.681 211.028 263.766 211.12C263.925 211.28 264.28 211.325 264.438 211.12C265.281 210.038 266.282 209.101 267.291 208.189C268.301 207.277 269.296 206.39 270.244 205.43C272.123 203.522 273.831 201.45 275.349 199.238C276.2 197.997 276.988 196.717 277.714 195.398C278.011 194.858 277.19 194.373 276.893 194.918L276.9 194.907Z" fill="#2F2C2B"/>
<path d="M284.286 207.966C283.894 208.926 283.267 209.766 282.591 210.526C281.838 211.381 281.016 212.173 280.214 212.981L274.974 218.261C274.088 219.152 273.103 220.021 272.517 221.162C272.456 221.272 272.44 221.402 272.472 221.525C272.503 221.647 272.58 221.753 272.687 221.819C272.741 221.851 272.8 221.872 272.862 221.881C272.924 221.889 272.987 221.885 273.048 221.869C273.108 221.853 273.165 221.825 273.215 221.787C273.265 221.749 273.307 221.701 273.338 221.646C273.852 220.651 274.701 219.886 275.479 219.107L278.099 216.467L280.775 213.77C281.567 212.97 282.392 212.17 283.152 211.33C283.991 210.395 284.725 209.382 285.213 208.211C285.31 207.973 285.105 207.683 284.88 207.621C284.758 207.59 284.63 207.608 284.521 207.671C284.412 207.733 284.331 207.836 284.295 207.957L284.286 207.966Z" fill="#2F2C2B"/>
<path d="M270.924 223.637L270.718 223.429C270.652 223.36 270.567 223.314 270.474 223.296C270.381 223.278 270.284 223.29 270.198 223.33C270.138 223.348 270.083 223.382 270.04 223.429L269.967 223.525C269.923 223.598 269.901 223.682 269.902 223.768L269.918 223.896C269.94 223.976 269.982 224.048 270.04 224.107L270.247 224.315C270.29 224.362 270.345 224.397 270.406 224.414C270.462 224.445 270.526 224.459 270.59 224.456C270.653 224.459 270.716 224.445 270.772 224.414C270.833 224.397 270.888 224.363 270.93 224.315L271.005 224.219C271.048 224.145 271.07 224.061 271.07 223.976L271.052 223.848C271.031 223.768 270.988 223.695 270.93 223.637H270.924Z" fill="#2F2C2B"/>
<path d="M260.88 214.866C261.492 214.866 261.493 213.906 260.88 213.906C260.267 213.906 260.267 214.866 260.88 214.866Z" fill="#2F2C2B"/>
<path d="M250.346 207.36C250.958 207.36 250.959 206.4 250.346 206.4C249.733 206.4 249.733 207.36 250.346 207.36Z" fill="#2F2C2B"/>
<path d="M238.181 257.802C236.973 262.381 236.634 267.149 236.859 271.87C237.086 276.637 237.855 281.362 238.81 286.029C239.348 288.648 239.945 291.253 240.554 293.858C240.571 293.918 240.599 293.975 240.637 294.025C240.676 294.075 240.724 294.116 240.778 294.148C240.832 294.179 240.892 294.199 240.954 294.207C241.016 294.214 241.079 294.21 241.14 294.193C241.2 294.176 241.256 294.147 241.306 294.109C241.355 294.07 241.396 294.022 241.427 293.967C241.458 293.912 241.478 293.851 241.485 293.789C241.493 293.726 241.488 293.662 241.472 293.602C240.4 288.986 239.346 284.358 238.619 279.672C237.91 275.061 237.536 270.373 237.855 265.71C238.026 263.125 238.441 260.563 239.094 258.058C239.253 257.459 238.335 257.205 238.178 257.802H238.181Z" fill="#2F2C2B"/>
<path d="M149.719 138.448C150.74 139.575 152.122 140.304 153.622 140.505C155.122 140.706 156.644 140.368 157.921 139.549C158.305 139.301 158.662 139.015 158.988 138.694C159.235 138.448 159.432 138.15 159.7 137.926L159.411 138.15C159.472 138.105 159.537 138.065 159.605 138.032L159.264 138.178C159.315 138.157 159.368 138.143 159.422 138.136L159.044 138.187C159.079 138.183 159.116 138.183 159.151 138.187L158.773 138.136C158.81 138.141 158.847 138.151 158.882 138.165L158.541 138.019C158.591 138.043 158.639 138.072 158.684 138.104L158.394 137.88C158.451 137.929 158.504 137.982 158.552 138.04L158.326 137.76C158.571 138.107 158.835 138.44 159.118 138.757C159.425 139.068 159.763 139.348 160.126 139.59C160.76 140.021 161.471 140.321 162.22 140.474C163.005 140.638 163.816 140.642 164.602 140.485C165.389 140.327 166.137 140.012 166.801 139.557C167.567 139.031 168.208 138.341 168.677 137.534C169.048 136.88 168.852 135.934 168.165 135.563C167.837 135.377 167.45 135.327 167.086 135.424C166.722 135.52 166.41 135.755 166.214 136.08C166.107 136.27 165.986 136.453 165.853 136.626L166.076 136.334C165.832 136.647 165.551 136.928 165.239 137.173L165.528 136.947C165.198 137.2 164.838 137.41 164.456 137.573L164.797 137.429C164.432 137.582 164.05 137.69 163.659 137.749L164.038 137.698C163.64 137.751 163.236 137.751 162.838 137.698L163.217 137.75C162.817 137.692 162.426 137.584 162.052 137.43L162.393 137.574C162.02 137.414 161.668 137.208 161.345 136.962L161.634 137.187C161.33 136.949 161.056 136.675 160.817 136.371L161.036 136.64C160.73 136.237 160.478 135.821 160.028 135.56C159.727 135.391 159.386 135.306 159.042 135.312C158.697 135.319 158.36 135.418 158.066 135.598C157.747 135.813 157.463 136.078 157.227 136.382C157.022 136.621 156.795 136.839 156.549 137.034L156.837 136.808C156.472 137.091 156.072 137.325 155.647 137.504L155.988 137.358C155.581 137.527 155.155 137.644 154.72 137.706L155.099 137.653C154.665 137.711 154.225 137.711 153.791 137.653L154.17 137.704C153.735 137.64 153.309 137.522 152.902 137.354L153.243 137.498C152.841 137.324 152.461 137.102 152.112 136.835L152.401 137.059C152.154 136.867 151.925 136.653 151.716 136.419C151.219 135.856 150.201 135.869 149.7 136.419C149.44 136.693 149.295 137.058 149.295 137.438C149.295 137.817 149.44 138.182 149.7 138.456L149.719 138.448Z" fill="#2F2C2B"/>
<path d="M135.535 147.637C139.03 147.637 141.864 145.254 141.864 142.314C141.864 139.374 139.03 136.99 135.535 136.99C132.04 136.99 129.206 139.374 129.206 142.314C129.206 145.254 132.04 147.637 135.535 147.637Z" fill="#E57D79"/>
<path d="M181.465 147.637C184.96 147.637 187.794 145.254 187.794 142.314C187.794 139.374 184.96 136.99 181.465 136.99C177.97 136.99 175.136 139.374 175.136 142.314C175.136 145.254 177.97 147.637 181.465 147.637Z" fill="#E57D79"/>
<path d="M144.073 134.861C145.988 134.861 147.54 133.294 147.54 131.362C147.54 129.429 145.988 127.862 144.073 127.862C142.159 127.862 140.607 129.429 140.607 131.362C140.607 133.294 142.159 134.861 144.073 134.861Z" fill="#2F2C2B"/>
<path d="M172.927 134.861C174.841 134.861 176.393 133.294 176.393 131.362C176.393 129.429 174.841 127.862 172.927 127.862C171.012 127.862 169.46 129.429 169.46 131.362C169.46 133.294 171.012 134.861 172.927 134.861Z" fill="#2F2C2B"/>
<path d="M80.0869 137.542C80.737 143.946 83.3115 149.996 87.4651 154.88C87.5543 154.97 87.6751 155.02 87.8011 155.02C87.9271 155.02 88.048 154.97 88.1372 154.88C88.2241 154.789 88.2726 154.667 88.2726 154.54C88.2726 154.413 88.2241 154.291 88.1372 154.2C86.593 152.377 85.2682 150.375 84.1905 148.237C83.1104 146.102 82.2816 143.846 81.7211 141.517C81.4049 140.211 81.1767 138.885 81.0379 137.549C81.0347 137.423 80.9836 137.302 80.8951 137.213C80.8066 137.124 80.6875 137.072 80.5624 137.069C80.4363 137.069 80.3154 137.119 80.2262 137.209C80.137 137.299 80.0869 137.421 80.0869 137.549V137.542Z" fill="#2F2C2B"/>
<path d="M73.7738 144.746C73.8576 147.432 74.5465 150.063 75.7884 152.44C76.1395 153.109 76.5339 153.753 76.9692 154.37C77.0353 154.477 77.1397 154.555 77.2608 154.587C77.382 154.619 77.5108 154.603 77.6206 154.542C77.6746 154.511 77.7218 154.468 77.7595 154.418C77.7973 154.368 77.8248 154.31 77.8406 154.249C77.8563 154.188 77.86 154.124 77.8513 154.062C77.8427 153.999 77.8219 153.939 77.7902 153.885C76.32 151.8 75.3399 149.404 74.9245 146.88C74.8113 146.175 74.7446 145.464 74.7248 144.75C74.7058 144.133 73.7548 144.131 73.7738 144.75V144.746Z" fill="#2F2C2B"/>
<path d="M71.4946 138.342C72.1064 138.342 72.108 137.382 71.4946 137.382C70.8812 137.382 70.8812 138.342 71.4946 138.342Z" fill="#2F2C2B"/>
<path d="M238.11 134.109C238.157 137.062 237.691 140 236.732 142.79C235.789 145.57 234.385 148.167 232.578 150.47C231.548 151.777 230.391 152.977 229.126 154.053C229.082 154.097 229.047 154.15 229.023 154.209C228.999 154.267 228.986 154.33 228.986 154.393C228.986 154.456 228.999 154.518 229.023 154.577C229.047 154.635 229.082 154.688 229.126 154.733C229.217 154.82 229.338 154.868 229.463 154.868C229.588 154.868 229.709 154.82 229.8 154.733C232.103 152.761 234.046 150.398 235.542 147.75C237.042 145.115 238.088 142.243 238.636 139.254C238.947 137.56 239.089 135.838 239.061 134.115C239.05 133.498 238.099 133.496 238.11 134.115V134.109Z" fill="#2F2C2B"/>
<path d="M244.897 141.31C244.551 144.421 243.727 147.458 242.454 150.312C242.093 151.119 241.697 151.91 241.267 152.683C240.969 153.222 241.79 153.707 242.09 153.163C243.665 150.323 244.792 147.251 245.428 144.059C245.608 143.147 245.745 142.229 245.848 141.306C245.876 141.048 245.608 140.826 245.372 140.826C245.247 140.828 245.128 140.88 245.039 140.969C244.951 141.059 244.9 141.179 244.897 141.306V141.31Z" fill="#2F2C2B"/>
<path d="M247.477 136.779C248.089 136.779 248.091 135.819 247.477 135.819C246.864 135.819 246.864 136.779 247.477 136.779Z" fill="#2F2C2B"/>
<path d="M138.607 81.6864L139.813 85.76C139.989 86.3503 140.906 86.0992 140.731 85.504L139.523 81.4288C139.348 80.8384 138.431 81.0896 138.607 81.6848V81.6864Z" fill="#2F2C2B"/>
<path d="M152.529 75.6208L153.682 85.3264C153.685 85.4526 153.736 85.5726 153.825 85.6618C153.913 85.751 154.032 85.8028 154.157 85.8064C154.39 85.8064 154.663 85.5856 154.633 85.3264L153.48 75.6208C153.477 75.4947 153.426 75.3747 153.337 75.2854C153.249 75.1962 153.13 75.1444 153.005 75.1408C152.772 75.1408 152.498 75.3616 152.529 75.6208Z" fill="#2F2C2B"/>
<path d="M170.194 78.3152L168.013 85.1952C167.98 85.318 167.996 85.4493 168.058 85.5602C168.12 85.6711 168.224 85.7524 168.345 85.7864C168.467 85.8203 168.597 85.8041 168.707 85.7412C168.817 85.6784 168.897 85.574 168.931 85.4512L171.112 78.5712C171.145 78.4484 171.129 78.3171 171.067 78.2062C171.005 78.0953 170.901 78.014 170.78 77.98C170.658 77.9461 170.528 77.9623 170.418 78.0252C170.308 78.088 170.228 78.1924 170.194 78.3152Z" fill="#2F2C2B"/>
<path d="M171.57 73.2896C172.182 73.2896 172.182 72.3296 171.57 72.3296C170.958 72.3296 170.957 73.2896 171.57 73.2896Z" fill="#2F2C2B"/>
<path d="M185.488 81.2288C184.574 82.2873 183.895 83.5312 183.497 84.8768C183.463 84.9996 183.48 85.1309 183.542 85.2418C183.604 85.3527 183.707 85.434 183.829 85.468C183.951 85.5019 184.081 85.4857 184.191 85.4228C184.301 85.36 184.381 85.2556 184.415 85.1328C184.762 83.9452 185.357 82.846 186.158 81.9088C186.245 81.817 186.293 81.6953 186.293 81.5688C186.293 81.4423 186.245 81.3206 186.158 81.2288C186.069 81.1389 185.948 81.0884 185.822 81.0884C185.696 81.0884 185.575 81.1389 185.486 81.2288H185.488Z" fill="#2F2C2B"/>
<path d="M195.114 87.0512C195.725 87.0512 195.725 86.0912 195.114 86.0912C194.502 86.0912 194.5 87.0512 195.114 87.0512Z" fill="#2F2C2B"/>
<path d="M130.672 86.112C131.284 86.112 131.286 85.152 130.672 85.152C130.059 85.152 130.059 86.112 130.672 86.112Z" fill="#2F2C2B"/>
</svg>
