<svg width="20" height="18" viewBox="0 0 20 18" fill="none" xmlns="http://www.w3.org/2000/svg">
<path d="M19 7.06L16.22 2.06C15.8736 1.43545 15.3664 0.915022 14.7509 0.55277C14.1354 0.190518 13.4342 -0.00034646 12.72 4.72117e-07H7.27999C6.56582 -0.00034646 5.86458 0.190518 5.24911 0.55277C4.63363 0.915022 4.12636 1.43545 3.77999 2.06L0.99999 7.06C0.670782 7.6536 0.498047 8.32122 0.498047 9C0.498047 9.67878 0.670782 10.3464 0.99999 10.94L3.77999 15.94C4.12636 16.5646 4.63363 17.085 5.24911 17.4472C5.86458 17.8095 6.56582 18.0003 7.27999 18H12.72C13.4342 18.0003 14.1354 17.8095 14.7509 17.4472C15.3664 17.085 15.8736 16.5646 16.22 15.94L19 10.94C19.3292 10.3464 19.5019 9.67878 19.5019 9C19.5019 8.32122 19.3292 7.6536 19 7.06ZM9.99999 12C9.40665 12 8.82663 11.8241 8.33328 11.4944C7.83993 11.1648 7.45541 10.6962 7.22835 10.1481C7.00129 9.59987 6.94188 8.99667 7.05763 8.41473C7.17339 7.83279 7.45911 7.29824 7.87867 6.87868C8.29823 6.45912 8.83278 6.1734 9.41472 6.05764C9.99666 5.94189 10.5999 6.0013 11.148 6.22836C11.6962 6.45542 12.1648 6.83994 12.4944 7.33329C12.824 7.82664 13 8.40666 13 9C13 9.79565 12.6839 10.5587 12.1213 11.1213C11.5587 11.6839 10.7956 12 9.99999 12Z" fill="#26222C"/>
</svg>
