<svg width="22" height="19" viewBox="0 0 22 19" fill="none" xmlns="http://www.w3.org/2000/svg">
<path d="M9.08238 17.9339L2.51791 11.1716C0.0378129 8.61588 0.0378129 4.47851 2.51791 1.92279C4.82737 -0.455831 8.48772 -0.634874 10.9976 1.42638C13.5074 -0.634874 17.1677 -0.455831 19.4772 1.92279C21.9579 4.47851 21.9579 8.61588 19.4772 11.1716L12.9127 17.9339C12.6659 18.1904 12.3678 18.392 12.0378 18.5256C11.7078 18.6591 11.3533 18.7216 10.9976 18.7088C10.6418 18.7216 10.2873 18.6591 9.95731 18.5256C9.62731 18.392 9.32918 18.1904 9.08238 17.9339ZM11.5088 12.4449C11.5347 12.5352 11.5859 12.6162 11.6564 12.6783C11.7268 12.7405 11.8135 12.7812 11.9063 12.7956C11.9991 12.8101 12.0941 12.7977 12.1802 12.76C12.2662 12.7223 12.3396 12.6607 12.3918 12.5826L14.2151 9.84785H14.9365C15.0012 9.84785 15.0652 9.83511 15.125 9.81036C15.1847 9.7856 15.239 9.74932 15.2848 9.70359C15.3305 9.65785 15.3668 9.60356 15.3915 9.5438C15.4163 9.48404 15.429 9.42 15.429 9.35532C15.429 9.29064 15.4163 9.22659 15.3915 9.16683C15.3668 9.10708 15.3305 9.05278 15.2848 9.00705C15.239 8.96131 15.1847 8.92503 15.125 8.90028C15.0652 8.87553 15.0012 8.86279 14.9365 8.86279H13.9521C13.871 8.86284 13.7911 8.88293 13.7196 8.92126C13.6481 8.9596 13.5872 9.01501 13.5423 9.08255L12.1629 11.1509L10.4863 5.28064C10.3635 4.84887 9.77334 4.79458 9.57232 5.19662L7.73923 8.86279H7.05861C6.92799 8.86279 6.80271 8.91468 6.71034 9.00705C6.61797 9.09941 6.56608 9.22469 6.56608 9.35532C6.56608 9.48594 6.61797 9.61122 6.71034 9.70359C6.80271 9.79596 6.92799 9.84785 7.05861 9.84785H8.04302C8.13459 9.84785 8.22435 9.82233 8.30222 9.77415C8.38009 9.72597 8.44299 9.65703 8.48384 9.57508L9.8871 6.76857L11.5095 12.4449H11.5088Z" fill="#FF5C4D"/>
</svg>
